<svg width="42" height="42" xmlns="http://www.w3.org/2000/svg"><g id="icon-facebook-blue" stroke="none" stroke-width="1" fill="#009BE8" fill-rule="evenodd"><g id="Page-1" fill-rule="nonzero"><path d="M21 0c11.596 0 21 9.401 21 21s-9.404 21-21 21C9.405 42 0 32.598 0 21S9.405 0 21 0zm0 2C10.507 2 2 10.51 2 21s8.507 19 19 19c10.494 0 19-8.509 19-19S31.494 2 21 2z" id="Path"/></g><path d="M15.216 18.02h3.426v-3.175s-.144-2.076 1.43-3.65c1.575-1.575 3.695-1.426 6.712-1.164v3.545h-2.23s-.937-.02-1.38.486c-.439.507-.392 1.23-.392 1.407v2.55h3.87l-.495 3.948h-3.394v10.167h-4.108V21.948h-3.44v-3.929z" id="Fill-3"/></g></svg>