<svg width="43" height="42" xmlns="http://www.w3.org/2000/svg"><g id="icon-linkedin" stroke="none" stroke-width="1" fill="#009BE8" fill-rule="evenodd"><path d="M14.83 12.313c1.165 0 2.108.938 2.108 2.095a2.1 2.1 0 01-2.108 2.095 2.1 2.1 0 01-2.108-2.095c0-1.157.943-2.095 2.108-2.095zm4.088 5.769h3.49v1.641c.938-1.522 2.708-2.385 5.398-1.641 2.69.744 2.468 5.312 2.468 5.312v6.293h-3.66v-5.971c0-.677.153-2.724-2.025-2.724-2.181 0-2.044 2.707-2.044 2.707v5.988h-3.627V18.082zm-5.923 11.605h3.641V18.082h-3.641v11.605z" id="Fill-1"/><path d="M21 42C9.403 42 0 32.6 0 21S9.404 0 21 0s21 9.4 21 21-9.403 21-21 21zm0-2c10.495 0 19-8.508 19-19S31.494 2 21 2C10.505 2 2 10.508 2 21s8.505 19 19 19z" id="Path" fill-rule="nonzero"/></g></svg>