<svg width="42" height="42" xmlns="http://www.w3.org/2000/svg"><g id="icon-twitter-blue" stroke="none" stroke-width="1" fill="#009BE8" fill-rule="evenodd"><path d="M21 2C10.507 2 2 10.51 2 21s8.507 19 19 19c10.494 0 19-8.509 19-19S31.494 2 21 2zm0 39v1C9.402 42 0 32.598 0 21 0 9.403 9.402 0 21 0s21 9.402 21 21-9.402 21-21 21v-1z" id="Fill-1" fill-rule="nonzero"/><path d="M16.275 27.422s-3.456-.066-4.453-3.29c0 0 1.728.133 2.028-.2 0 0-3.723-.897-3.756-4.786 0 0 1.13.565 2.16.599 0 0-3.59-2.593-1.413-6.465 0 0 3.624 4.802 9.921 5.135 0 0-.852-2.838 1.761-5.006 2.616-2.174 5.85-.334 6.47.486 0 0 1.84-.289 3.124-1.153 0 0-.42 1.66-1.971 2.658 0 0 1.817-.243 2.659-.73 0 0-.886 1.419-2.415 2.504 0 0 .642 5.993-4.509 10.946-5.152 4.954-13.627 3.922-16.685 1.33 0 0 4.154.466 7.079-2.028" id="Path"/></g></svg>