<?xml version="1.0" encoding="UTF-8"?>
<svg width="164px" height="164px" viewBox="0 0 164 164" version="1.1" xmlns="http://www.w3.org/2000/svg" xmlns:xlink="http://www.w3.org/1999/xlink">
    <!-- Generator: Sketch 63.1 (92452) - https://sketch.com -->
    <title>Group</title>
    <desc>Created with Sketch.</desc>
    <defs>
        <polygon id="path-1" points="0 0.19721519 163.802785 0.19721519 163.802785 164 0 164"></polygon>
    </defs>
    <g id="Page-1" stroke="none" stroke-width="1" fill="none" fill-rule="evenodd">
        <g id="Desktop-HD_Questionnaire" transform="translate(-340.000000, -183.000000)">
            <g id="Group" transform="translate(340.000000, 183.000000)">
               
                <g id="ICON_Street-lighting">
                    <g id="Group-14">
                        <g id="Group-3">
                            <mask id="mask-2" fill="white">
                                <use xlink:href="#path-1"></use>
                            </mask>
                            <g id="Cliform-padding"></g>
                            <path d="M72.1342582,132.20123 C71.9598785,132.813635 71.4035241,133.212218 70.7973468,133.212218 C70.6707139,133.212218 70.5420051,133.19561 70.4153722,133.158243 L64.1190177,131.370851 C63.3799797,131.16118 62.9523342,130.391003 63.1620051,129.651965 C63.3716759,128.912927 64.1397772,128.481129 64.8788152,128.694952 L71.1772456,130.482344 C71.9162835,130.692015 72.3439291,131.462192 72.1342582,132.20123 M138.682967,121.314952 C81.2725873,123.887053 51.9228152,119.865939 48.9625114,109.025332 C47.5882329,103.99323 52.1532456,98.9030025 56.8324354,95.1891291 C29.502562,104.402192 23.6213975,112.469332 23.7957772,117.819053 C24.256638,131.89399 65.1009418,144.110952 80.7992709,147.631762 C81.5486886,147.799914 82.0199291,148.543104 81.8517772,149.292522 C81.7064608,149.940218 81.1314228,150.378243 80.4961823,150.378243 C80.3944608,150.378243 80.2927392,150.367863 80.1910177,150.345028 C77.7995241,149.809433 21.6409418,137.004977 21.016081,117.910395 C20.6818532,107.727863 35.2550177,98.4442177 65.5701063,89.5280152 C66.2572456,89.3266481 66.9817519,89.6754076 67.2495494,90.3355595 C67.5194228,90.9977873 67.2474734,91.7555089 66.6163848,92.0897367 C61.9060557,94.5954076 50.0337013,102.390597 51.6467139,108.294597 C52.5580557,111.628572 58.3125873,116.208116 81.2497519,118.230091 L81.2497519,92.5319139 C81.2497519,91.6226481 81.7438278,90.8607747 82.4538025,90.397838 L82.4538025,42.4101924 C82.4517266,42.3894329 82.4413468,42.3728253 82.4413468,42.3541418 C82.4413468,42.2586481 82.3562329,32.6511544 76.693043,28.8023443 C75.9996759,28.3311038 75.1568405,27.9262937 74.2309671,27.5463949 C73.8406886,28.0633063 73.2262076,28.3684709 72.5805873,28.3684709 C72.3605367,28.3684709 72.1384101,28.3331797 71.9204354,28.2605215 L53.2472709,21.9994582 C52.1594734,21.6340911 51.5761316,20.4570278 51.9394228,19.3692304 C52.3047899,18.2835089 53.4860051,17.7001671 54.5675747,18.0613823 L54.8395241,18.1527241 C54.9620051,18.1589519 55.086562,18.1568759 55.209043,18.1983949 L73.8925873,24.426243 C75.6239291,25.003357 77.0521823,25.6821924 78.2562329,26.5001165 C81.164638,28.4784962 82.8503089,31.5301418 83.8384608,34.432319 C84.8245367,31.5301418 86.5102076,28.4784962 89.4206886,26.5001165 C90.6247392,25.6821924 92.0529924,25.003357 93.7843342,24.426243 L112.467878,18.1983949 C112.590359,18.1568759 112.714916,18.1568759 112.837397,18.1527241 L113.109347,18.0613823 C114.19922,17.6980911 115.372132,18.2814329 115.737499,19.3692304 C116.10079,20.4570278 115.515372,21.6340911 114.429651,21.9994582 L95.7564861,28.2605215 C95.5385114,28.3331797 95.3163848,28.3684709 95.0984101,28.3684709 C94.4507139,28.3684709 93.8362329,28.0633063 93.4459544,27.5463949 C92.520081,27.9262937 91.6772456,28.3311038 90.9838785,28.8023443 C85.2999291,32.6656861 85.2355747,42.2565722 85.2355747,42.3541418 L85.2355747,90.397838 C85.9413975,90.8607747 86.4396253,91.6226481 86.4396253,92.5319139 L86.4396253,118.628673 C98.9534481,119.432066 115.832992,119.552471 138.560486,118.535256 C139.307828,118.524876 139.978359,119.095762 140.011575,119.863863 C140.04479,120.629889 139.451068,121.279661 138.682967,121.314952 M92.9352709,138.271306 C92.7774987,138.904471 92.2086886,139.330041 91.5859038,139.330041 C91.4738025,139.330041 91.3637772,139.315509 91.2496,139.288522 L84.895119,137.72118 C84.1498532,137.53642 83.6952203,136.782851 83.8799797,136.037585 C84.0626633,135.290243 84.812081,134.833534 85.5635747,135.02037 L91.9180557,136.587711 C92.6633215,136.772471 93.1179544,137.526041 92.9352709,138.271306 M51.0945114,23.934243 C51.2315241,23.527357 51.6737013,23.3073063 52.0785114,23.444319 L70.7516759,29.7053823 C71.158562,29.8423949 71.3786127,30.2845722 71.2416,30.6914582 C71.1336506,31.0173823 70.830562,31.2229013 70.504638,31.2229013 C70.4216,31.2229013 70.338562,31.2104456 70.2576,31.1813823 L51.5844354,24.920319 C51.1775494,24.7833063 50.9574987,24.3411291 51.0945114,23.934243 M116.58241,23.934243 C116.719423,24.3411291 116.499372,24.7833063 116.092486,24.920319 L97.4213975,31.1813823 C97.3383595,31.2104456 97.2553215,31.2229013 97.1743595,31.2229013 C96.8484354,31.2229013 96.5453468,31.0173823 96.4353215,30.6914582 C96.2983089,30.2845722 96.5183595,29.8423949 96.9252456,29.7053823 L115.59841,23.444319 C116.005296,23.3073063 116.445397,23.527357 116.58241,23.934243 M81.9016,0.195762025 C36.6687392,0.195762025 -0.000830379747,36.8653316 -0.000830379747,82.0981924 C-0.000830379747,127.331053 36.6687392,164.000623 81.9016,164.000623 C127.134461,164.000623 163.80403,127.331053 163.80403,82.0981924 C163.80403,36.8653316 127.134461,0.195762025 81.9016,0.195762025" id="Fill-1" fill="#FAB217" mask="url(#mask-2)"></path>
                        </g>
                        <path d="M91.9576729,136.479899 L85.6987987,135.038477 C84.9586116,134.866652 84.2204693,135.286669 84.0405344,135.97206 C83.8585547,136.659361 84.3063474,137.352388 85.042445,137.520395 L91.3013193,138.963726 C91.4117339,138.988545 91.5221485,139 91.6305185,139 C92.2459778,139 92.8062299,138.61053 92.9595836,138.028234 C93.1415632,137.342843 92.6917258,136.647906 91.9576729,136.479899" id="Fill-4" fill="#FFFFFF"></path>
                        <path d="M64.7562853,128.059857 C64.023805,127.826125 63.2625193,128.298127 63.0526514,129.105978 C62.8448409,129.913829 63.2707494,130.755718 64.0032297,130.984912 L70.2437147,132.941 C70.369224,132.979577 70.4967908,133 70.6223,133 C71.2230985,133 71.7745162,132.562036 71.9473486,131.892609 C72.1551591,131.084758 71.7292506,130.245138 70.9967703,130.015945 L64.7562853,128.059857 Z" id="Fill-6" fill="#FFFFFF"></path>
                        <path d="M138.547453,118.259156 C115.820456,119.273108 98.9433568,119.153089 86.4277317,118.352274 L86.4277317,92.3392257 C86.4277317,91.4328766 85.9315907,90.673447 85.2237074,90.2119953 L85.2237074,42.3224098 C85.2237074,42.2251532 85.2901364,32.665032 90.9718855,28.8140827 C91.6652375,28.3443538 92.5101304,27.9408422 93.4339076,27.5621621 C93.8262535,28.0774154 94.4386452,28.381601 95.0863272,28.381601 C95.3042971,28.381601 95.5264189,28.3464231 95.7464647,28.273998 L114.417145,22.0330184 C115.504919,21.6688233 116.090324,20.4955357 115.724965,19.4112276 C115.359605,18.3269195 114.18672,17.7454489 113.09687,18.1075747 L112.827003,18.1986235 C112.702448,18.2027621 112.577894,18.2027621 112.455416,18.2441479 L93.77228,24.4520188 C92.0409761,25.0272815 90.6127541,25.7039394 89.4087298,26.5213091 C86.5003884,28.4912734 84.8147544,31.5331302 83.8266241,34.425998 C82.8405697,31.5331302 81.1549356,28.4912734 78.2465942,26.5213091 C77.0425699,25.7039394 75.6143479,25.0272815 73.883044,24.4520188 L55.1999083,18.2441479 C55.075354,18.2027621 54.9507998,18.2048313 54.8283215,18.1986235 L54.5584539,18.1075747 C53.4748321,17.7475182 52.2957186,18.3289888 51.9282836,19.4112276 C51.5650004,20.4955357 52.1504053,21.6688233 53.238179,22.0330184 L71.9088594,28.273998 C72.1289052,28.3464231 72.3510269,28.381601 72.5689968,28.381601 C73.2166789,28.381601 73.8290705,28.0774154 74.2214164,27.5621621 C75.1451936,27.9408422 75.9900866,28.3443538 76.6834385,28.8140827 C82.3444286,32.6505469 82.4316166,42.2272225 82.4316166,42.3224098 C82.4316166,42.3410334 82.4419961,42.3575878 82.4419961,42.3782807 L82.4419961,90.2119953 C81.7341129,90.673447 81.2379718,91.4328766 81.2379718,92.3392257 L81.2379718,117.95497 C58.3013088,115.939482 52.546903,111.374627 51.6355812,108.051347 C50.0226038,102.166285 61.8946986,94.3961003 66.6049247,91.8984669 C67.2359995,91.5653111 67.5100188,90.8100202 67.2401513,90.1519859 C66.9702838,89.4918823 66.2457933,89.1442415 65.560745,89.3449627 C35.2463193,98.2325645 20.6713975,107.486431 21.005618,117.6363 C21.632541,136.669632 77.7898953,149.433014 80.1792608,149.966891 C80.283056,149.989654 80.3847753,150 80.4844187,150 C81.1217212,150 81.6967466,149.56338 81.8420599,148.917761 C82.0102081,148.170747 81.5389779,147.429941 80.7875006,147.262329 C65.0895148,143.752813 24.2461041,131.575039 23.7873294,117.545251 C23.6108775,112.21269 29.4919135,104.171428 56.8211893,94.9879173 C52.1441776,98.6898777 47.5792648,103.763777 48.9535132,108.779737 C51.9116764,119.585571 81.2628827,123.593786 138.672007,121.029936 C139.438016,120.994758 140.0338,120.34707 139.99851,119.583502 C139.965295,118.817864 139.296854,118.24881 138.547453,118.259156" id="Fill-8" fill="#FFFFFF"></path>
                        <path d="M51.5246531,24.5511144 L69.9868529,30.9596414 C70.0669003,30.9872552 70.1490001,31 70.2310999,31 C70.5533418,31 70.8530062,30.7897103 70.959736,30.4562205 C71.0952007,30.0398892 70.8776361,29.5895718 70.4753469,29.4493786 L52.0131471,23.0408517 C51.6129104,22.9027827 51.1757288,23.1258173 51.040264,23.5421485 C50.9047993,23.9606038 51.1223639,24.4109213 51.5246531,24.5511144" id="Fill-10" fill="#FFFFFF"></path>
                        <path d="M97.5246535,29.4495338 C97.122364,29.5897129 96.9047992,30.0399853 97.0402641,30.4583988 C97.1469939,30.7897313 97.4466586,31 97.7689007,31 C97.8510006,31 97.9331005,30.9872564 98.0131479,30.9596454 L116.473311,24.5517596 C116.877653,24.4115804 117.095218,23.961308 116.959753,23.5450185 C116.824288,23.126605 116.387106,22.9014688 115.984816,23.0416479 L97.5246535,29.4495338 Z" id="Fill-12" fill="#FFFFFF"></path>
                    </g>
                </g>
            </g>
        </g>
    </g>
</svg>